<svg xmlns="http://www.w3.org/2000/svg" version="1.1" width="600px" height="600px" viewBox="0 0 200 200" style="overflow:hidden!important;"><g id="svga-group-wrapper"><g id="svga-group-backs-single"><path id="SvgjsPath5550" d="M0 0h200v200H0V0z" fill="#ecf0f1" stroke-width="none" opacity="1"></path></g><g id="svga-group-humanwrap-move" transform="matrix(1,0,0,1,0,0)"><g id="svga-group-humanwrap"><g id="svga-group-hair-back-move" transform="matrix(1,0,0,1,0,0)"><g id="svga-group-hair-back"></g></g><g id="svga-group-humanbody-back"><path id="SvgjsPath5503" d="M180.8 184.9c-2.3-3.4-38.9-17.8-38.9-17.8l-13.4-5.2-5.6-68.8H76.8L71.3 162l-13.4 5.2S21.4 181.6 19 185c-2.3 3.4-3.3 14.9-3.3 14.9V219h168.5v-19.2c-.1.1-1-11.5-3.4-14.9z" fill="#f0c7b1" stroke-width="none" opacity="1" stroke="none"></path></g><g id="svga-group-chinshadow-single"><path id="SvgjsPath5772" d="M73.4 148.4c11.3 14.1 20.9 13.8 20.9 13.8s9.6.3 20.9-13.9c4.4-5.5 8-11.5 10.8-17.1l-3.1-38.1H76.8l-4.3 54.2c.3.3.6.7.9 1.1z" fill="#d19271" stroke-width="none" opacity="1" stroke="none"></path></g><g id="svga-group-humanbody-front"><path id="SvgjsPath5504" d="M184.5 219c-.1-6.4-.1-12.8-.1-19.2l-.3-.1s.1-.1.2 0c.1 0 .1.1.1.1v-.4l-.1-.5-.1-.9-.2-1.9c-.2-1.3-.4-2.5-.6-3.8-.2-1.3-.5-2.5-.9-3.8-.4-1.2-.8-2.5-1.5-3.6-.8-.9-1.9-1.5-2.9-2.1-1-.6-2.1-1.1-3.2-1.7-2.1-1.1-4.3-2.1-6.5-3.1-4.4-2-8.7-3.9-13.1-5.7-4.4-1.9-8.8-3.7-13.2-5.5l-13-5.2-1.2-16.9c-.4-5.7-.9-11.5-1.3-17.2l-1.3-17.2-1.5-17.3-.1-.8h-.8c-7.7 0-15.4.1-23.1.1l-23.1.2h-.5v.5L75 110.2l-1.3 17.2c-.8 11.4-1.8 22.8-2.8 34.2-5.6 2.1-11.2 4.2-16.7 6.4-5.6 2.2-11.2 4.5-16.8 6.9-2.8 1.2-5.6 2.4-8.3 3.6-2.8 1.3-5.5 2.5-8.2 4.1-.7.4-1.3.8-2 1.4-.2.1-.4.4-.5.6l-.3.6c-.2.4-.4.7-.5 1.1-.6 1.5-1 3-1.3 4.5-.6 3-1.1 6-1.4 9.1l-.1 19.1v.9h.9l42.1.1H100c14 0 28.1-.1 42.1-.2l42.1-.5h.3v-.3zm-84.5-1-42.1-.1-41.2.1-.1-18.1c.3-3 .6-5.9 1.2-8.9.3-1.4.6-2.9 1.1-4.2.1-.3.3-.7.4-.9l.2-.4.3-.3c.5-.4 1.1-.8 1.8-1.2 2.5-1.5 5.3-2.8 8-4.1 2.7-1.3 5.5-2.5 8.2-3.7 5.5-2.4 11.1-4.8 16.7-7.1s11.2-4.5 16.9-6.7l.2-.1v-.2c.9-11.5 1.7-23 2.7-34.4l1.4-17.2 1.5-16.7 22.6.2c7.4.1 14.8.1 22.3.1l1.3 16.4 1.5 17.2c.5 5.7 1 11.5 1.5 17.2l1.6 17.2v.3l.3.1 13.4 5c4.4 1.7 8.9 3.4 13.3 5.2 4.4 1.8 8.8 3.7 13.2 5.6 2.2 1 4.3 2 6.5 3 1.1.5 2.1 1.1 3.2 1.6 1 .6 2.1 1.2 2.9 2 .7 1.1 1.1 2.3 1.4 3.5.3 1.2.6 2.5.8 3.7.2 1.3.4 2.5.6 3.8l.2 1.9.1.9.1.5v.4c0 6.3 0 12.6-.1 18.9l-41.8-.5c-14 .1-28.1 0-42.1 0z" fill="#c27b55" stroke-width="none" opacity="1" stroke="none"></path><path id="SvgjsPath5505" d="M125.1 142.4s-1.8 23-9.1 32.9c0 0 7.9-25 9.1-32.9zm-34.5 16s5 7.9 11.5 10.1c0 0-9.5 2.2-11.5-10.1zM73.4 140c6.7 25.6 6.7 25.6 8.5 30.7 0 0 .4-12.6-8.5-30.7z" fill="#d19271" stroke-width="none" opacity="1" stroke="none"></path></g><g id="svga-group-clothes-single"><path id="SvgjsPath9161" d="M61.8 186.6s14.4 11.8 17.6 14.6c3.2 2.8 21.3 12 21.3 12s19.2-9.9 22.4-12.5c3.2-2.6 14.4-17.4 14.4-17.4V220H66.4l-4.6-33.4z" fill="#efefef" stroke-width="none" opacity="1"></path><path id="SvgjsPath9162" d="M67 148.7s-7.2 5.3-11 8.6-9.9 6.6-9.9 6.6l2.9 1.6s-5.5 3.2-10.9 4.8c-5.5 1.6-20.1 5.2-21.1 5.7s-2.3 2.9-2.3 2.9-4.4.9-4.9 11.1c-.6 10.2-1.3 30-1.3 30h64.1s-5.8-35.1-6.3-39.2c0-.4 1.2-16.6 1.2-18 0-1 4.4-11.7 4.3-15.4-.1-1.5-4.8 1.3-4.8 1.3zm66 0s7.2 5.3 11 8.6 9.9 6.6 9.9 6.6l-2.9 1.6s5.5 3.2 10.9 4.8c5.5 1.6 20.1 5.2 21.1 5.7s2.3 2.9 2.3 2.9 4.4.9 4.9 11.1 1.3 29.9 1.3 29.9h-64.1s5.8-35.1 6.3-39.2c0-.4-1.1-16.6-1.1-18 0-1-3.5-12.8-3.7-15.9-.1-1.2 4.1 1.9 4.1 1.9z" fill="#062227" stroke-width="none" opacity="1" stroke="none"></path><path id="SvgjsPath9163" d="M138.2 164.1s4.9 11.3 6.3 13.8c1.4 2.6 12.2 10.8 12.2 10.8s-15.5 12.9-15.7 14.5c-.2 1.6-3.1 11.7-3.1 11.7l4.2-9.9s6.6-5.6 8.2-6.6 14.1-9.9 14.1-9.9-16.2-11-17.8-12.7c-1.6-1.4-8.4-11.7-8.4-11.7zm26.3 9.6c-3.5-.9-10.1-4.2-12.7-5.6 0 0 8 5.4 10.6 6.8 2.6 1.4 15.5 3.8 15.5 4.5 0 .7-4 5.2-4.9 7.5-.9 2.4-.9 9.1-.9 9.1s1.9-5.9 3.1-8.9 7.7-7.3 7.7-7.3 0-1.6-.9-2.6-14-2.6-17.5-3.5zm24.1 12.9c-.2-2.6-2.1-4.5-3.8-5.2 0 0 .9 1.6 1.2 2.6s.7 11.5.7 15.9 3.1 16.9 3.1 16.9-.9-27.6-1.2-30.2zM65.5 161.7c-.5 5.4-2.6 17.6-3.5 21.4-.9 3.8-.2 18.1-.2 18.1s.7-12.7 1.9-15.5c1.2-2.8 2.6-10.3 2.4-12.4-.4-2.2-.6-11.6-.6-11.6zm-43.1 14.5c-1.6.4-4.3 1.2-5.1 2.2 0 0 0 1.4 7.5-.8 5.3-1.5 14.7-5.8 19.7-8.2-6.9 2.7-20.8 6.5-22.1 6.8zm22.1-6.8c1.6-.6 2.9-1.2 3.5-1.6-.1 0-1.4.6-3.5 1.6zm-2.1 22.9c-2.2-1-5.7-2.4-5.7-2.4 4.1 1.8 21.2 14.6 21.2 14.6l6.3 13.8s-4.5-14.6-5.5-15.5c-.9-1-14.1-9.5-16.3-10.5z" fill="#0e3036" stroke-width="none" opacity="1" stroke="none"></path><path id="SvgjsPath9164" d="M190.8 190.1c-.5-9.2-4.1-11.1-5.1-11.4-.4-.6-1.4-2.5-2.4-2.9-.5-.3-3.8-1.1-9.1-2.5-4.4-1.1-9.3-2.4-12-3.2-4.1-1.3-8.4-3.4-10.1-4.4l2.9-1.7-.8-.4c-.1 0-6.1-3.3-9.8-6.5-3.8-3.3-10.9-8.6-11-8.6l-.8-.6-4.8-2.4 1.1 16.4 3.1 1.2c0 1.1.4 6.1.7 10.5.2 3.5.5 7 .5 7.3-.1 1.2-.7 4.9-1.4 9.7-.6.8-1.2 1.5-1.8 2.2-1.3 1.6-2.6 3.1-3.9 4.6-.7.8-1.3 1.5-2 2.2-.3.4-.7.7-1.1 1-.4.3-.8.6-1.2.8-3.4 2.1-7 4-10.5 5.9-3.5 1.9-7 3.7-10.5 5.5-3.4-1.7-6.9-3.5-10.3-5.3-1.7-.9-3.5-1.9-5.2-2.9-1.7-1-3.4-1.9-5-3.1L68.5 192c-.9-5.4-1.6-9.9-1.7-11.1 0-.3.2-3.9.5-7.3.3-4.4.6-8.9.7-10.2l3.1-1.4 1.3-15.9-5 1.7-.8.6c-.1.1-7.2 5.4-11 8.6-3.7 3.2-9.8 6.5-9.8 6.5l-.8.4 2.9 1.7c-1.7.9-5.9 3.1-10 4.4-2.7.8-7.6 2.1-12 3.2-5.3 1.4-8.6 2.2-9.1 2.5-1 .5-2.1 2.3-2.4 2.9-1 .4-4.6 2.2-5.1 11.4-.6 10.1-1.3 29.8-1.3 30v.5h184.1v-.5c-.1-.2-.8-19.9-1.3-29.9zM30.4 219.5c-.1-3.5-.3-6.9-.9-10.4-.7-3.7-1.4-7.4-2.3-11-.5-1.8-.9-3.6-1.5-5.4-.6-1.8-1.2-3.6-2.2-5.2-1.1-1.6-2.3-3-3.6-4.4-.6-.7-1.3-1.4-2-2-.7-.6-1.3-1.4-2.2-1.8.4.2.7.6 1 .9.3.3.6.7.9 1l1.8 2.1c1.2 1.4 2.4 2.9 3.3 4.5.9 1.6 1.5 3.4 2 5.1.5 1.8 1 3.6 1.4 5.4.9 3.6 1.6 7.3 2.5 10.9.4 1.8.7 3.7.9 5.5.4 1.6.6 3.2.9 4.8H9c.1-3.2.8-20.3 1.2-29.4.5-9.6 4.5-10.6 4.6-10.6l.2-.1.1-.2c.5-.9 1.4-2.4 2.1-2.7.5-.2 4.8-1.4 8.9-2.4 4.4-1.1 9.4-2.4 12.1-3.2 4.9-1.5 9.8-4.2 10.8-4.8.6.4 1.2.7 1.8 1.1l2.5 1.5c.4.2.8.5 1.2.8l.6.3c-2.1 2.2-4.3 4.2-6.7 6l-8.4 6.1c-2.8 2.1-5.6 4.1-8.4 6.2l-1.1.8 1.2.8 6.1 4.1 6.1 4.1 6.2 4.1c1 .7 2.1 1.4 3 2l2.8 2.2c1.2 2.3 2.3 4.6 3.5 6.9l3.3 6.3H30.4zm32.4 0c-.9-2.2-1.8-4.4-2.7-6.7-1-2.4-2-4.9-3.1-7.3v-.1l-.1-.1c-.9-.8-1.8-1.7-2.8-2.5-1-.8-2-1.5-3-2.2-2-1.4-4-2.8-6-4.3s-4-2.8-6.1-4.2c-1.7-1.1-3.3-2.3-5-3.4 2.4-1.8 4.8-3.6 7.2-5.5 2.7-2.1 5.5-4.2 8.2-6.4 2.8-2.2 5.2-4.8 7.4-7.5s4.3-5.5 6-8.5c-2.1 2.7-4.4 5.4-6.8 7.9-.2.3-.5.5-.7.8-.2-.1-.4-.3-.6-.4-.4-.3-.7-.7-1.1-1-.8-.6-1.6-1.2-2.4-1.7-.8-.5-1.6-1.1-2.5-1.6l-1.2-.6-.6-.4c1.8-1 6.2-3.6 9.2-6.2 3-2.6 10.2-8 10.2-8l4.1-2.1s-3.7 14.6-3.7 15.3c0 .8-.4 5.9-.7 10.5-.4 5.7-.5 7.3-.5 7.5 0 .1 0 .3.1.4-.2.6-.4 1.2-.5 1.9l-.9 3.9c-.3 1.3-.5 2.6-.8 3.9-.2 1.3-.5 2.6-.7 3.9-.1 2.3-.2 4.5-.1 6.8.4-2.2.7-4.5 1-6.7.3-1.3.5-2.6.8-3.9.2-1.3.5-2.6.7-3.9l.6-3.9c0-.2.1-.5.1-.7 1.1 7.5 5.2 32.6 6 36.9l-9 .1zm57 0H84.2c-3.7 0-7.4 0-11.2.1-.4-2.4-2.8-16.6-4.4-27.2.8.7 1.6 1.4 2.4 2 3 2.6 5.9 5.1 8.9 7.6 1.6 1.2 3.3 2.2 5 3.2 1.7 1 3.4 1.9 5.2 2.9 3.5 1.9 7 3.7 10.5 5.5l.2.1.2-.1c3.6-1.9 7.1-3.7 10.7-5.7 3.5-1.9 7.1-3.9 10.4-6.1l1.2-.9c.4-.4.8-.7 1.1-1.1.7-.7 1.4-1.5 2-2.3 1.3-1.5 2.6-3.1 3.8-4.7.5-.6.9-1.1 1.4-1.7-1.7 10.7-4.2 25.9-4.7 28.4h-7.1zm8.2 0c.7-4.3 4.9-29.4 6-36.9 0 .2.1.5.1.7l.6 3.9c.2 1.3.5 2.6.7 3.9.3 1.3.5 2.6.8 3.9.2 2.2.6 4.5 1 6.7.1-2.3 0-4.6-.1-6.8-.2-1.3-.4-2.6-.7-3.9-.2-1.3-.5-2.6-.8-3.9l-.9-3.9c-.1-.6-.3-1.2-.5-1.9 0-.2 0-.3.1-.4 0-.2-.1-1.8-.5-7.5-.3-4.6-.7-9.8-.7-10.6 0-.9-3.7-15.8-3.7-15.8l4.2 2.6s7.2 5.4 10.2 8c3 2.6 7.4 5.2 9.2 6.2l-.6.4-1.2.6c-.9.5-1.7 1-2.5 1.6-.8.6-1.6 1.1-2.4 1.7-.4.3-.7.7-1.1 1-.2.2-.4.3-.6.4-.2-.2-.5-.5-.7-.8-2.4-2.5-4.6-5.2-6.8-7.9 1.8 3 3.9 5.8 6.1 8.5 2.2 2.7 4.6 5.3 7.4 7.5 2.7 2.2 5.5 4.3 8.2 6.4 2.4 1.9 4.8 3.7 7.2 5.5-1.7 1.1-3.3 2.2-5 3.4-2 1.4-4.1 2.8-6.1 4.2-2 1.4-4 2.8-6 4.3-1 .7-2 1.4-3 2.2-.9.8-1.9 1.6-2.8 2.5l-.1.1-.1.1c-1 2.4-2.1 4.9-3.1 7.3l-2.7 6.6-9.1.1zm41.7 0c.2-1.6.4-3.1.6-4.7.3-1.9.5-3.7.9-5.5.9-3.6 1.6-7.3 2.5-10.9.4-1.8.9-3.6 1.4-5.4s1.1-3.6 2-5.1c.9-1.5 2.1-3 3.3-4.5l1.8-2.1c.3-.4.6-.7.9-1 .3-.3.6-.7 1-.9-.8.4-1.5 1.2-2.2 1.8l-2 2c-1.3 1.4-2.5 2.8-3.6 4.4-1.1 1.6-1.6 3.4-2.2 5.2-.6 1.8-1.1 3.6-1.5 5.4-.9 3.7-1.6 7.3-2.3 11-.4 3.4-.6 6.8-.6 10.3h-32.4l3.3-6.3c1.2-2.3 2.4-4.6 3.5-6.9l2.8-2.2c1-.7 2-1.4 3-2l6.1-4.1 6.1-4.1 6.1-4.1 1.2-.8-1.1-.8c-2.8-2.1-5.6-4.2-8.4-6.2l-8.4-6.1c-2.4-1.8-4.6-3.8-6.7-6l.6-.3c.4-.2.8-.5 1.2-.8l2.5-1.5c.6-.3 1.2-.7 1.8-1.1 1 .6 5.9 3.3 10.8 4.8 2.7.8 7.7 2.1 12.1 3.2 4.2 1.1 8.5 2.2 8.9 2.4.6.3 1.6 1.8 2.1 2.7l.1.2.2.1s4.1 1 4.6 10.6c.5 9.1 1.1 26.2 1.2 29.4h-21.2zm22.4 1z" fill="#000000" stroke-width="none" opacity="1" stroke="none"></path></g><g id="svga-group-head" transform="matrix(1,0,0,1,0,0)"><g id="svga-group-ears-left-move" transform="matrix(1,0,0,1,0,0)"><g id="svga-group-ears-left"><path id="SvgjsPath6853" d="M68.53 80.36s-11.15-9.8-12.94-9.96c-1.54-.14-5.36 8.01-7.05 13.16-.45 1.36-.34 2.88.25 4.2 1.62 3.57 5.21 11.04 8.43 14.78 0 0 2.72.59 3.58.33.86-.25 7.58-5.67 8.27-7.77s.83-11.3-.54-14.74z" fill="#f0c7b1" stroke-width="none" opacity="1"></path><path id="SvgjsPath6854" d="M69.49 84.19c.18 1.31.28 2.64.33 3.96.05 1.32.06 2.65-.01 3.98a26.7 26.7 0 0 1-.17 1.99c-.05.34-.1.67-.2 1.02s-.28.7-.46.96c-.72 1.11-1.6 1.95-2.47 2.8-.88.84-1.78 1.63-2.71 2.4-.47.38-.93.75-1.42 1.11-.24.18-.49.35-.74.52l-.4.24c-.16.08-.35.17-.53.19-.67.08-1.23-.01-1.82-.09-.58-.08-1.15-.19-1.73-.32l-.13-.03-.08-.1c-1.45-1.74-2.63-3.68-3.74-5.65-1.1-1.98-2.1-4.03-3.06-6.1l-1.41-3.11c-.5-1.05-.71-2.29-.54-3.46.06-.59.26-1.14.44-1.67.18-.54.37-1.07.56-1.6.4-1.05.79-2.11 1.22-3.15.86-2.07 1.76-4.13 2.94-6.02.3-.47.62-.93 1-1.36.19-.21.4-.42.67-.59.13-.08.3-.16.52-.16.19.01.32.07.47.12 1.06.47 1.87 1.14 2.75 1.76 1.72 1.29 3.37 2.66 5 4.09 1.64 1.41 3.22 2.86 4.81 4.38.49 1.27.72 2.58.91 3.89zM58.4 72.51c-.85-.59-1.75-1.26-2.59-1.61-.09-.02-.2-.08-.26-.08-.04 0-.12.02-.2.07-.17.1-.35.25-.51.44-.34.36-.65.8-.94 1.24-1.16 1.8-2.18 3.77-3.11 5.77-.46 1.01-.92 2.02-1.32 3.06-.2.52-.4 1.04-.59 1.57-.19.53-.38 1.05-.45 1.6-.15 1.11.06 2.27.55 3.26.47 1.03.98 2.05 1.49 3.05 1.02 2.02 2.12 3.99 3.26 5.91 1.15 1.91 2.36 3.79 3.76 5.42l-.21-.13c1.09.2 2.3.43 3.29.33.11-.01.18-.06.28-.11l.35-.22.7-.5c.47-.34.93-.71 1.39-1.08.92-.74 1.81-1.52 2.68-2.34.85-.82 1.73-1.66 2.39-2.61.17-.25.29-.46.38-.72.08-.27.14-.58.19-.89.09-.63.17-1.27.21-1.91.1-1.29.14-2.6.15-3.9.01-1.31-.04-2.62-.15-3.92-.11-1.3-.27-2.62-.66-3.84-3.33-2.62-6.67-5.35-10.08-7.86z" fill="#e1ac8f" stroke-width="none" opacity="1"></path><path id="SvgjsPath6855" d="M68.79 88.66S58.04 75.08 56.02 76.21c-2.01 1.12-5.19 7.53-5.18 9.67.02 3.14 3.34 8.38 5.01 9.96s3.68 2.55 6.35 1.94c2.66-.61 6.59-9.12 6.59-9.12z" fill="#e1ac8f" stroke-width="none" opacity="1"></path><path id="SvgjsPath6856" d="M60.61 88.64c-.45-1.26-.95-2.5-1.45-3.74a49.61 49.61 0 0 0-1.66-3.64c-.61-1.18-1.22-2.36-1.97-3.45l-.08-.12-.08.12c-.75 1.18-1.45 2.38-2.12 3.62-.33.62-.66 1.25-.96 1.89-.31.64-.57 1.31-.84 1.98l-.04.1.04.12c.46 1.41.96 2.79 1.47 4.18.25.69.54 1.37.83 2.05.3.68.59 1.35.99 2.01l.19.31.25-.23c.34-.31.6-.65.87-1.02.26-.37.49-.76.69-1.17.4-.82.63-1.78.6-2.74v-.06l-.02-.04c-.5-.99-1.03-1.96-1.55-2.94l-.05.03c.42 1.01.83 2.03 1.26 3.03-.04.86-.3 1.68-.68 2.41-.33.62-.77 1.17-1.24 1.65-.26-.49-.5-1.02-.73-1.56l-.81-2.03c-.53-1.32-1.03-2.66-1.52-3.99.45-1.3.94-2.59 1.52-3.82.57-1.23 1.22-2.41 1.96-3.51.67 1.04 1.17 2.23 1.68 3.39l1.54 3.67 1.56 3.67c.52 1.22 1.05 2.45 1.6 3.66l.06-.03c-.41-1.27-.85-2.54-1.31-3.8z" fill="#c27b55" stroke-width="none" opacity="1"></path></g></g><g id="svga-group-ears-right-move" transform="matrix(1,0,0,1,0,0)"><g id="svga-group-ears-right"><path id="SvgjsPath6857" d="M131.47 80.36s11.15-9.8 12.94-9.96c1.54-.14 5.36 8.01 7.05 13.16.45 1.36.34 2.88-.25 4.2-1.62 3.57-5.21 11.04-8.43 14.78 0 0-2.72.59-3.58.33-.86-.25-7.58-5.67-8.27-7.77s-.83-11.3.54-14.74z" fill="#f0c7b1" stroke-width="none" opacity="1"></path><path id="SvgjsPath6858" d="M131.44 80.33c1.58-1.52 3.17-2.97 4.81-4.38 1.62-1.42 3.28-2.8 5-4.09.88-.63 1.69-1.29 2.75-1.76.16-.04.28-.11.47-.12.21 0 .38.08.52.16.28.17.49.37.67.59.38.43.7.89 1 1.36 1.18 1.89 2.07 3.96 2.94 6.02.43 1.04.82 2.09 1.22 3.15.19.53.38 1.06.56 1.6.18.53.37 1.08.44 1.67.17 1.17-.04 2.41-.54 3.46l-1.41 3.11c-.97 2.06-1.96 4.11-3.06 6.1-1.11 1.98-2.29 3.92-3.74 5.65l-.08.1-.13.03c-.58.13-1.15.23-1.73.32-.59.07-1.16.16-1.82.09-.18-.02-.37-.11-.53-.19l-.4-.24c-.25-.17-.5-.34-.74-.52-.48-.36-.95-.73-1.42-1.11-.93-.76-1.83-1.56-2.71-2.4-.87-.86-1.75-1.69-2.47-2.8a3.42 3.42 0 0 1-.46-.96c-.1-.35-.14-.69-.2-1.02-.08-.67-.14-1.33-.17-1.99-.07-1.33-.07-2.65-.01-3.98.06-1.32.15-2.65.33-3.96.17-1.34.4-2.65.91-3.89zm.06.06c-.4 1.21-.56 2.54-.66 3.84-.1 1.3-.15 2.61-.15 3.92.01 1.31.06 2.61.15 3.9.05.65.12 1.29.21 1.91.06.31.11.62.19.89.09.26.2.47.38.72.66.94 1.54 1.79 2.39 2.61.86.81 1.76 1.59 2.68 2.34.46.37.92.73 1.39 1.08l.7.5.35.22c.1.05.17.1.28.11.99.1 2.2-.13 3.29-.33l-.21.13c1.4-1.63 2.61-3.51 3.76-5.42 1.14-1.92 2.24-3.89 3.26-5.91.51-1.01 1.02-2.02 1.49-3.05.49-.99.7-2.15.55-3.26-.07-.56-.26-1.07-.45-1.6s-.38-1.05-.59-1.57c-.4-1.04-.86-2.06-1.32-3.06-.93-2.01-1.95-3.97-3.11-5.77-.29-.44-.6-.88-.94-1.24-.17-.18-.35-.34-.51-.44a.431.431 0 0 0-.2-.07c-.06 0-.17.06-.26.08-.84.35-1.74 1.02-2.59 1.61-3.39 2.49-6.73 5.22-10.08 7.86z" fill="#e1ac8f" stroke-width="none" opacity="1"></path><path id="SvgjsPath6859" d="M131.21 88.66s10.75-13.58 12.77-12.45c2.01 1.12 5.19 7.53 5.18 9.67-.02 3.14-3.34 8.38-5.01 9.96s-3.68 2.55-6.35 1.94c-2.66-.61-6.59-9.12-6.59-9.12z" fill="#e1ac8f" stroke-width="none" opacity="1"></path><path id="SvgjsPath6860" d="M148.54 85.31c-.26-.67-.52-1.34-.84-1.98-.3-.64-.62-1.27-.96-1.89-.67-1.24-1.38-2.44-2.12-3.62l-.08-.12-.08.12c-.74 1.1-1.36 2.27-1.97 3.45-.6 1.18-1.14 2.4-1.66 3.64-.49 1.24-1 2.48-1.45 3.74-.46 1.26-.9 2.53-1.28 3.81l.06.03c.55-1.21 1.07-2.44 1.6-3.66l1.56-3.67 1.54-3.67c.51-1.16 1.01-2.35 1.68-3.39.74 1.1 1.39 2.29 1.96 3.51.58 1.24 1.08 2.52 1.52 3.82-.5 1.34-.99 2.67-1.52 3.99l-.81 2.03c-.23.53-.47 1.07-.73 1.56-.47-.48-.91-1.03-1.24-1.65-.39-.73-.64-1.55-.68-2.41.43-1 .84-2.02 1.26-3.03l-.05-.03c-.52.98-1.05 1.95-1.55 2.94l-.02.04v.06c-.03.96.2 1.92.6 2.74.2.41.43.81.69 1.17.26.36.53.71.87 1.02l.25.23.19-.31c.4-.67.69-1.34.99-2.01.29-.68.57-1.36.83-2.05.51-1.38 1.01-2.77 1.47-4.18l.04-.12-.07-.11z" fill="#c27b55" stroke-width="none" opacity="1"></path></g></g><g id="svga-group-faceshape-wrap"><g id="svga-group-faceshape-single"><path id="SvgjsPath5762" d="M140.4 54.9c-2.2-10-6.3-16-15.2-20.8-9.3-5-25.2-4.8-25.2-4.8s-15.9-.2-25.2 4.8c-8.8 4.8-13 10.8-15.2 20.8-.9 4 0 13.6 0 13.6s1.2 11.9 1.2 15.3-.6 9.6.2 16.4 6.8 23.5 18.1 37.6 20.9 13.8 20.9 13.8 9.6.3 20.9-13.8 17.3-30.9 18.1-37.6c.8-6.8.2-13 .2-16.4s1.2-15.3 1.2-15.3c-.1-.1.9-9.6 0-13.6z" fill="#f0c7b1" stroke-width="none" opacity="1" stroke="none"></path><path id="SvgjsPath5763" d="M140.4 54.9c-2.2-10-6.3-16-15.2-20.8-9.3-5-25.2-4.8-25.2-4.8s-15.9-.2-25.2 4.8c-8.8 4.8-13 10.8-15.2 20.8-.9 4 0 13.6 0 13.6s1.2 11.9 1.2 15.3-.6 9.6.2 16.4 6.8 23.5 18.1 37.6 20.9 13.8 20.9 13.8 9.6.3 20.9-13.8 17.3-30.9 18.1-37.6c.8-6.8.2-13 .2-16.4s1.2-15.3 1.2-15.3c-.1-.1.9-9.6 0-13.6zm0 10.1c-.1 1.1-.2 2.2-.3 3.4l-.5 4.9c-.2 1.6-.4 3.3-.5 4.9-.2 1.7-.3 3.3-.4 5-.1 1.7 0 3.3 0 5 0 3.3-.1 6.6-.4 9.8 0 .4-.1.8-.1 1.2l-.1.6-.1.6c-.1.8-.3 1.6-.5 2.3-.4 1.6-.9 3.1-1.4 4.7-1.1 3.1-2.3 6.1-3.7 9.1s-2.9 5.9-4.6 8.7c-.4.7-.8 1.4-1.3 2.1-.4.7-.8 1.4-1.3 2.1l-1.4 2-1.4 2c-.5.7-1 1.3-1.5 2l-.7 1-.4.5-.4.5-1.6 1.9c-.5.6-1.1 1.2-1.7 1.8-2.3 2.3-4.7 4.4-7.4 6.1-1.4.8-2.7 1.6-4.2 2.1-.7.3-1.5.5-2.2.7s-1.5.3-2.2.4c-.6 0-1.4-.1-2.1-.2-.7-.2-1.5-.4-2.2-.6-1.5-.5-2.9-1.2-4.3-2-2.8-1.6-5.3-3.7-7.6-5.9-2.3-2.3-4.4-4.8-6.3-7.4-2-2.6-3.8-5.4-5.5-8.1-1.7-2.8-3.3-5.7-4.7-8.7-1.4-3-2.7-6-3.8-9.1-.3-.8-.5-1.6-.8-2.3l-.4-1.2-.3-1.2-.3-1.2c-.1-.4-.2-.8-.2-1.2-.1-.4-.1-.8-.2-1.2l-.1-1.2c-.3-3.3-.4-6.6-.3-9.9 0-1.7.1-3.3.1-5s-.1-3.3-.3-5c-.2-3.3-.5-6.6-.8-9.9s-.4-6.6-.3-9.9c0-.8.1-1.6.2-2.4.1-.8.2-1.5.5-2.3.4-1.6.9-3.1 1.5-4.7 1.2-3 2.8-5.8 4.9-8.2.5-.6 1.1-1.1 1.7-1.7.6-.5 1.2-1 1.9-1.5.6-.5 1.3-.9 2-1.4.7-.4 1.4-.9 2.1-1.2.4-.2.7-.4 1.1-.6l1.1-.5.5-.3.6-.2 1.1-.4c.4-.1.8-.3 1.1-.4.4-.1.8-.3 1.1-.4l1.2-.3 1.2-.3c3.2-.7 6.4-1.2 9.6-1.5 1.6-.1 3.3-.3 4.9-.3.8 0 1.6-.1 2.4-.1h2.4c3.3.1 6.5.3 9.8.7 3.2.4 6.5 1.1 9.5 2.2.4.1.8.3 1.1.4l1.1.5.6.3.5.3 1.1.6c1.4.8 2.8 1.7 4.1 2.7s2.5 2.2 3.5 3.4c1.1 1.3 2 2.6 2.8 4.1 1.6 2.9 2.5 6.1 3.3 9.3.2 1.1.3 2.2.3 3.4v3.4c0 1 0 2.1-.1 3.2z" fill="#c27b55" stroke-width="none" opacity="1" stroke="none"></path></g></g><g id="svga-group-mouth-single-move" transform="matrix(1,0,0,1,0,0)"><g id="svga-group-mouth-single"><path id="SvgjsPath6547" d="M119.9 121.9c-.2-.3-.6-.6-.9-.8-.3-.1-.8-.1-.8.4 0 .3.2.6.5.8-.66 1.22-2.4 1.46-3.8 1.56-1.5.1-2.71.22-4.49-.17-3.42-.92-6.52-1.82-9.62-1.62-2.9.1-5.13.98-7.93 1.78-3.3.9-7.66 2.74-9.96-.66.3-.2.6-.4.8-.7.4-.4 0-1-.5-.9-1 .3-2.3 1.6-2.2 2.7 0 .2.3.4.5.3.4-.3.7-.7 1-1 .9 1.7 2.7 2.5 4.7 2.7 2 .1 3.9-.5 5.9-.9 2.2-.5 4.4-.7 6.6-.8 4.1-.1 8.1.2 12.2.4 2.4.1 5.7.4 7.5-1.5.1.3.2.6.5.8.1.1.3 0 .4-.1.7-.59 0-1.69-.4-2.29z" fill="#da7c87" stroke-width="none" opacity="1" stroke="none"></path><path id="SvgjsPath6548" d="M105.6 128.4c-3.4.2-6.6.7-10 .5-.3 0-.3.4-.1.4 3.2.7 7 .9 10.2-.2.4-.1.4-.7-.1-.7z" fill="#d19271" stroke-width="none" opacity="1" stroke="none"></path></g></g><g id="svga-group-eyes-left-move" transform="matrix(1,0,0,1,0,0)"><g id="svga-group-eyes-left"><g id="svga-group-eyesback-left"><path id="SvgjsPath7781" d="M80.2 74.2c7.5 0 13.5 5.8 13.5 13s-6 13-13.5 13-13.5-5.8-13.5-13 6-13 13.5-13z" fill="#ffffff" stroke-width="none" opacity="1"></path></g><g id="svga-group-eyesiriswrapper-left" transform="matrix(1,0,0,1,0,0)"><g id="svga-group-eyesiriscontrol-left" transform="matrix(1,0,0,1,0,0)"><g id="svga-group-eyesiris-left"><path id="SvgjsPath9617" d="M80.2 81.9c2.9 0 5.3 2.4 5.3 5.3s-2.4 5.3-5.3 5.3-5.3-2.4-5.3-5.3 2.4-5.3 5.3-5.3z" fill="#4e60a3" stroke-width="none" opacity="1"></path><path id="SvgjsPath9618" d="M80.2 82.2c2.8 0 5 2.2 5 5s-2.2 5-5 5-5-2.2-5-5 2.2-5 5-5m0-.6c-3.1 0-5.6 2.5-5.6 5.6s2.5 5.6 5.6 5.6 5.6-2.5 5.6-5.6c0-3.1-2.5-5.6-5.6-5.6z" fill="#253984" stroke-width="none" opacity="1"></path><path id="SvgjsPath9619" d="M82.9 82.6c-.1.3-.3.7-.5 1s-.4.6-.7.9c.1-.3.3-.7.5-1 .2-.4.4-.7.7-.9zm.7.6-.6.9c-.2.3-.5.6-.8.8l.6-.9c.3-.3.5-.6.8-.8zm-.9 2.1c.2-.3.4-.5.7-.7.2-.2.5-.4.8-.6-.2.3-.4.5-.7.7-.2.2-.5.4-.8.6zm.3.6c.3-.2.6-.3.9-.4s.6-.2 1-.3c-.3.2-.6.3-.9.4s-.7.2-1 .3zm.3.5.9-.3c.3-.1.6-.1.9-.1l-.9.3c-.3.1-.6.1-.9.1zm.1.7c.2 0 .3-.1.5-.1h.5c.3 0 .6.1.9.2-.3.1-.6 0-.9 0-.2 0-.3 0-.5-.1-.2.1-.3.1-.5 0zm-.2.6c.3 0 .7.1 1 .1l.9.3c-.3 0-.7-.1-1-.1-.2 0-.5-.1-.9-.3zm0 .8c.2 0 .3.1.4.1s.3.1.4.2c.3.1.5.3.8.5-.3-.1-.6-.2-.8-.3-.1-.1-.3-.1-.4-.2-.1-.2-.3-.2-.4-.3zm-.5.8c.3.1.5.3.8.4.2.2.5.3.7.6-.3-.1-.5-.3-.8-.4-.3-.2-.5-.4-.7-.6zm-.9-7.1c0 .3-.1.7-.2 1s-.2.7-.4 1c0-.3.1-.7.2-1 .1-.3.2-.6.4-1zM80.5 84c-.1-.3 0-.7 0-1s.1-.7.2-1c.1.3 0 .7 0 1-.1.3-.1.7-.2 1zm-1.2-2c.1.3.2.7.3 1s.1.7.1 1c-.1-.3-.2-.7-.3-1 0-.2-.1-.3-.1-.5V82zm-1.1.4c.2.3.3.6.4.9s.2.7.3 1c-.2-.3-.3-.6-.4-.9-.2-.3-.3-.7-.3-1zm-.9.5c.3.2.5.5.7.8s.4.6.5.9c-.3-.2-.5-.5-.7-.8-.2-.2-.4-.5-.5-.9zm-1.1.9c.3.2.7.4 1 .7.3.2.6.5.9.8-.3-.2-.7-.4-1-.7-.3-.2-.6-.5-.9-.8zm-.3 1c.3.1.5.2.8.3.2.2.5.3.7.5-.3-.1-.5-.2-.8-.3-.2-.1-.5-.2-.7-.5zm-.4 1.1c.3 0 .5 0 .8.1.2.1.5.1.7.3-.3 0-.5 0-.8-.1-.3-.1-.5-.1-.7-.3zm-.3 1.2c.3-.1.6-.1.9-.1s.6 0 .9.1c-.3.1-.6.1-.9.1-.3 0-.6 0-.9-.1zm.2.9c.2-.1.5-.2.8-.2.3-.1.5-.1.8-.1-.2.1-.5.2-.8.2-.3.1-.6.1-.8.1zm0 1c.3-.2.6-.3.9-.4s.6-.2.9-.2c-.3.2-.6.3-.9.4-.2.1-.6.1-.9.2zm.5.8c.2-.2.5-.3.8-.5l.9-.3c-.2.2-.5.3-.8.5s-.6.3-.9.3zm.9 1c.1-.2.3-.4.5-.7.2-.2.4-.4.6-.5-.1.2-.3.4-.5.7-.2.2-.4.4-.6.5zm.9.8c.1-.3.2-.7.4-1s.3-.6.6-.9c-.1.3-.2.7-.4 1-.2.4-.4.7-.6.9zm1.1.4c0-.3 0-.6.1-.8.1-.3.2-.5.3-.8 0 .3 0 .6-.1.8 0 .3-.1.6-.3.8zm2.8-1.8c.2.2.3.5.3.8.1.3.2.5.2.8-.2-.2-.3-.5-.3-.8-.1-.2-.2-.5-.2-.8zm.7-.3c.2.2.4.4.5.6.2.2.3.4.4.7-.2-.2-.4-.4-.5-.6-.2-.3-.3-.5-.4-.7zm-1.5.6c.1.2.1.5.2.8v.8c-.1-.2-.1-.5-.2-.8 0-.3-.1-.6 0-.8zm-.7 0c.1.3.1.5.1.8s0 .5-.1.8c-.1-.3-.1-.5-.1-.8 0-.2 0-.5.1-.8z" fill="#253984" stroke-width="none" opacity="1"></path><path id="SvgjsPath9620" d="M80.2 84.2c1.7 0 3 1.3 3 3s-1.3 3-3 3-3-1.3-3-3 1.3-3 3-3z" fill="#000000" stroke-width="none" opacity="1"></path><path id="SvgjsPath9621" d="m79.5 84.8-.6-.6c-.2-.2-.5-.3-.8-.3s-.6.1-.8.3c-.2.2-.3.5-.3.8s.1.6.3.8l.6.6c.2.2.5.3.8.3s.6-.1.8-.3c.4-.6.4-1.2 0-1.6zm2.7 5.1c1 0 1-1.5 0-1.5-.9 0-.9 1.5 0 1.5z" fill="#ffffff" stroke-width="none" opacity="1"></path></g></g></g><g id="svga-group-eyesfront-left"><path id="SvgjsPath7789" d="M80.2 73.7c-7.8 0-14.1 6.1-14.1 13.6s6.3 13.6 14.1 13.6 14.1-6.1 14.1-13.6S88 73.7 80.2 73.7zM68.6 92.6s3.5-5.5 5.1-7.2 3.1-1.8 6.1-1.9 6.3.1 7.9 2.4c1.6 2.3 2.7 6.3 2.7 6.3-7.3-3.2-21.8.4-21.8.4z" fill="#f0c7b1" stroke-width="none" opacity="1" stroke="none"></path><path id="SvgjsPath7790" d="M89.9 90.3c-.2-.6-.4-1.2-.7-1.8s-.5-1.2-.8-1.8c-.3-.6-.7-1.2-1.2-1.6-1-.9-2.3-1.4-3.5-1.6-1.3-.2-2.6-.2-3.8-.1-1.3.1-2.5.1-3.8.5-1.2.4-2.3 1.3-3.1 2.3-.8 1-1.6 2.1-2.3 3.1-.8 1.1-1.5 2.1-2.2 3.2l-.3.4.5-.1c1.8-.4 3.6-.7 5.4-1 1.8-.3 3.6-.5 5.5-.6 1.8-.1 3.7-.2 5.5 0l2.7.3c.9.2 1.8.4 2.7.7-.2-.7-.4-1.3-.6-1.9zm-4.8.5c-1.8-.2-3.7-.2-5.5-.1-1.8.1-3.7.3-5.5.6-1.7.3-3.3.6-4.9 1 1.3-2.1 2.6-4.1 4-6 .4-.5.8-1 1.3-1.4s1.1-.7 1.7-.8c.6-.2 1.2-.2 1.8-.3.6 0 1.3-.1 1.9-.1 1.3 0 2.5 0 3.7.2 1.2.2 2.4.6 3.3 1.5.5.4.8.9 1.1 1.5.3.6.6 1.1.9 1.7.5 1.2 1 2.4 1.4 3.6-.8-.4-1.7-.7-2.6-.9-.8-.2-1.7-.4-2.6-.5z" fill="#1a1a1a" stroke-width="none" opacity="1" stroke="none"></path><path id="SvgjsPath7791" d="M74.2 82.9c1.4-.3 12.4-1 13.3-.5.8.5 2.4 4.3 2.4 4.3-.4-1.1-.3-6.4-.9-6.5s-14.7 1.6-15.4 2.2c-.6.4-2 3.4-2.5 4.4.6-1 2.1-3.7 3.1-3.9zm2.2 13.2c-3.4-.3-7.7-1.9-7.7-1.9 4.5 3 7.7 1.9 7.7 1.9z" fill="#d19271" stroke-width="none" opacity="1" stroke="none"></path></g></g></g><g id="svga-group-eyes-right-move" transform="matrix(1,0,0,1,0,0)"><g id="svga-group-eyes-right"><g id="svga-group-eyesback-right"><path id="SvgjsPath7782" d="M119.8 74.2c7.5 0 13.5 5.8 13.5 13s-6 13-13.5 13-13.5-5.8-13.5-13 6-13 13.5-13z" fill="#ffffff" stroke-width="none" opacity="1"></path></g><g id="svga-group-eyesiriswrapper-right" transform="matrix(1,0,0,1,0,0)"><g id="svga-group-eyesiriscontrol-right" transform="matrix(1,0,0,1,0,0)"><g id="svga-group-eyesiris-right"><path id="SvgjsPath9622" d="M119.8 82.6c2.5 0 4.6 2.1 4.6 4.6s-2.1 4.6-4.6 4.6-4.6-2.1-4.6-4.6 2.1-4.6 4.6-4.6z" fill="#4e60a3" stroke-width="none" opacity="1"></path><path id="SvgjsPath9623" d="M119.8 82.8c2.4 0 4.4 2 4.4 4.4s-2 4.4-4.4 4.4-4.4-2-4.4-4.4 2-4.4 4.4-4.4m0-.5c-2.7 0-4.9 2.2-4.9 4.9s2.2 4.9 4.9 4.9 4.9-2.2 4.9-4.9-2.2-4.9-4.9-4.9z" fill="#253984" stroke-width="none" opacity="1"></path><path id="SvgjsPath9624" d="M122.1 83.1c-.1.3-.3.6-.4.9-.2.3-.4.5-.6.8.1-.3.3-.6.4-.9.2-.3.4-.5.6-.8zm.7.6c-.2.3-.3.6-.6.8-.2.2-.4.5-.7.7.2-.3.3-.6.6-.8.2-.3.5-.5.7-.7zm-.8 1.8.6-.6c.2-.2.4-.3.7-.5l-.6.6c-.2.2-.4.4-.7.5zm.2.5c.3-.2.5-.3.8-.4s.6-.2.9-.2c-.2.2-.5.3-.8.4-.3.1-.6.2-.9.2zm.3.5c.3-.1.5-.2.8-.2.3-.1.5-.1.8-.1-.3.1-.5.2-.8.2-.2.1-.5.1-.8.1zm.1.6c.1 0 .3 0 .4-.1h.4c.3 0 .5.1.8.2h-.8c-.1 0-.3 0-.4-.1-.1.1-.2.1-.4 0zm-.1.6c.3 0 .6.1.8.1.3.1.6.2.8.3-.3 0-.6-.1-.8-.1-.3-.1-.6-.2-.8-.3zm-.1.6c.1 0 .2.1.4.1.1.1.2.1.4.2s.5.3.7.4c-.3-.1-.5-.2-.7-.3-.1-.1-.2-.1-.3-.2-.2 0-.3-.1-.5-.2zm-.4.7c.2.1.4.2.7.4.2.2.4.3.6.5-.2-.1-.5-.2-.7-.4-.2-.1-.4-.3-.6-.5zm-.8-6.1c0 .3-.1.6-.2.9s-.2.6-.3.8c0-.3.1-.6.2-.9 0-.3.1-.6.3-.8zm-1.2 1.5v-.9c0-.3.1-.6.2-.9v.9c0 .3-.1.6-.2.9zm-1-1.7c.1.3.2.6.2.9.1.3.1.6.1.9-.1-.3-.2-.6-.2-.9 0-.2-.1-.3-.1-.4v-.5zm-1 .3c.2.3.3.6.4.8.1.3.2.6.2.9-.2-.3-.3-.6-.4-.8 0-.3-.1-.6-.2-.9zm-.8.5c.2.2.4.5.6.7s.3.5.4.8c-.2-.2-.4-.5-.6-.7-.1-.3-.2-.5-.4-.8zm-.9.7c.3.2.6.4.8.6s.5.5.8.7c-.3-.2-.6-.4-.8-.6-.3-.2-.5-.4-.8-.7zm-.2.9c.2.1.5.2.7.3.2.1.4.3.6.4-.2-.1-.5-.2-.7-.3-.3 0-.5-.2-.6-.4zm-.4 1c.2 0 .4 0 .7.1.2.1.4.1.6.2-.2 0-.4 0-.7-.1-.2 0-.4-.1-.6-.2zm-.2 1c.2-.1.5-.1.8-.1s.5 0 .8.1c-.2.1-.5.1-.8.1s-.6 0-.8-.1zm.1.8c.2-.1.4-.2.7-.2.2 0 .5-.1.7-.1-.2.1-.4.2-.7.2-.2.1-.5.1-.7.1zm0 .8c.2-.1.5-.2.8-.3s.5-.1.8-.2c-.2.1-.5.2-.8.3-.2.2-.5.2-.8.2zm.5.8c.2-.2.4-.3.7-.4s.5-.2.8-.3c-.2.2-.4.3-.7.4-.3.2-.6.3-.8.3zm.7.8c.1-.2.3-.4.4-.6l.5-.5c-.1.2-.3.4-.4.6-.1.3-.3.4-.5.5zm.8.8c.1-.3.2-.6.4-.8s.3-.5.5-.8c-.1.3-.2.6-.4.8-.2.3-.3.5-.5.8zm1 .3c0-.2 0-.5.1-.7s.1-.5.3-.7c0 .2 0 .5-.1.7s-.2.5-.3.7zm2.4-1.6c.1.2.2.4.3.7s.1.5.2.7c-.1-.2-.2-.4-.3-.7-.1-.2-.2-.4-.2-.7zm.6-.2.5.5.3.6-.5-.5-.3-.6zm-1.3.5c.1.2.1.4.1.7v.7c-.1-.2-.1-.4-.1-.7v-.7zm-.6 0c.1.2.1.5.1.7s0 .5-.1.7c-.1-.2-.1-.5-.1-.7s0-.5.1-.7z" fill="#253984" stroke-width="none" opacity="1"></path><path id="SvgjsPath9625" d="M119.8 84.6c1.4 0 2.6 1.2 2.6 2.6s-1.2 2.6-2.6 2.6-2.6-1.2-2.6-2.6 1.2-2.6 2.6-2.6z" fill="#000000" stroke-width="none" opacity="1"></path><path id="SvgjsPath9626" d="m119.2 85.1-.5-.5c-.2-.2-.4-.3-.7-.3-.2 0-.5.1-.7.3-.2.2-.3.4-.3.7s.1.5.3.7l.5.5c.2.2.4.3.7.3.2 0 .5-.1.7-.3.3-.5.3-1.1 0-1.4zm2.4 4.4c.8 0 .8-1.3 0-1.3-.9 0-.9 1.3 0 1.3z" fill="#ffffff" stroke-width="none" opacity="1"></path></g></g></g><g id="svga-group-eyesfront-right"><path id="SvgjsPath7792" d="M119.8 73.7c-7.8 0-14.1 6.1-14.1 13.6s6.3 13.6 14.1 13.6 14.1-6.1 14.1-13.6-6.3-13.6-14.1-13.6zm-10.4 17.4s.6-2.4 2.2-4.5 5.1-2.3 8.1-2.2c3 .1 4.6.2 6.2 1.7 1.5 1.3 4.6 5.6 5.1 6.2l.1.1-.1-.1c-1.1-.7-13.8-5.6-21.6-1.2z" fill="#f0c7b1" stroke-width="none" opacity="1" stroke="none"></path><path id="SvgjsPath7795" d="M129 89.6c-.8-.9-1.5-1.8-2.3-2.7-.8-.9-1.8-1.7-2.9-2-1.2-.4-2.3-.4-3.5-.5-1.2-.1-2.4-.1-3.6 0-1.2.1-2.4.3-3.5.8-.6.3-1.1.6-1.5 1.1-.4.5-.8 1-1.1 1.5-.6 1.1-1 2.2-1.3 3.4 1.7-.9 3.5-1.3 5.4-1.5 1.8-.2 3.7-.1 5.6.1 1.8.2 3.7.6 5.5 1.1.9.2 1.8.5 2.7.8.4.2.9.3 1.3.5.2.1 1.4.6 1.4.6.1-.2-1.5-2.3-2.2-3.2zm-.4 1.5-2.7-.9c-1.8-.5-3.7-.9-5.6-1.1-1.9-.2-3.8-.2-5.7.1-.9.1-1.9.3-2.8.6-.9.3-1.8.7-2.5 1.2.4-1.1.9-2.2 1.5-3.2.3-.5.7-1 1.1-1.4.4-.4.9-.7 1.4-1 1-.5 2.2-.7 3.4-.8 1.2-.1 2.3-.1 3.5-.1 1.2 0 2.4 0 3.5.4.6.2 1.1.4 1.6.8s.9.8 1.3 1.2c1.3 1.5 2.5 3.2 3.7 4.8-.1-.1-.2-.1-.4-.2-.4 0-.8-.2-1.3-.4z" fill="#1a1a1a" stroke-width="none" opacity="1" stroke="none"></path><path id="SvgjsPath7796" d="M112.9 82.6c.9-.6 11.3 1.4 12.7 1.8s3.9 4.5 3.9 4.5-1.8-5.1-2.4-5.8c-.7-.7-13.7-1.8-14.3-1.7-.6.1-2.1 4.9-2.6 6.1-.1 0 1.7-4.4 2.7-4.9zm12.9 11.6-14.7-.7c6.5 1.9 14.7.7 14.7.7z" fill="#d19271" stroke-width="none" opacity="1" stroke="none"></path></g></g></g><g id="svga-group-facehighlight-single"></g><g id="svga-group-eyebrows-left-move" transform="matrix(1,0,0,1,0,0)"><g id="svga-group-eyebrows-left-rotate" transform="matrix(1,1.7453292519943295e-9,-1.7453292519943295e-9,1,1.2391838311032188e-7,-1.3753196981269866e-7)"><g id="svga-group-eyebrows-left"><path id="SvgjsPath10154" d="M93.2 68.2s-1.8 4.7-3.3 5.6-18.1.7-18.1.7-4.2 2.2-5.5 3.9l3.3-8.3.4.4 10.4-1.7-1.2.8 13-1.7-1.3 2.2 2.3-1.9z" fill="#2a232b" stroke-width="none" opacity="1"></path><path id="SvgjsPath10155" d="m66 79.1.4-.6c.3-.4.7-.8 1.1-1.2.2-.2.4-.3.7-.5.2-.2.5-.3.7-.5.5-.3 1-.6 1.4-.9s1-.6 1.5-.8c2.2.1 4.3.1 6.4.1 2.2 0 4.3 0 6.5-.1 1.1-.1 2.2-.1 3.2-.2.5-.1 1.1-.1 1.6-.3l.2-.1c.1 0 .1-.1.2-.1.1-.1.2-.2.3-.2l.3-.3.2-.3c.3-.4.5-.8.8-1.2l.6-1.2c.2-.4.4-.8.5-1.2.1-.2.2-.4.2-.6l.1-.3.1-.2v-.2l-1.2.9c-.3.2-.5.4-.8.6l1.1-1.8.1-.2h-.3l-3.3.4-3.3.4c-1.1.1-2.2.3-3.3.4l-2.2.3.4-.2.9-.6-1.1.2-2.6.4-2.6.4-5.1.8-.4-.3-.2-.2-.1.3-1.6 4.2-.4 2.2c-.3.7-.5 1.4-.8 2.1l-.2.6zm.6-1.1c.2-.5.4-1.1.7-1.6l.8-2.1 1.6-3.8.2.2.1.1h.1l5.2-.8 2.6-.4 1.5-.2-.4.1-.8.5 1.1-.1 3.3-.4c1.1-.1 2.2-.3 3.2-.5l3.2-.5 3-.4-1.1 2-.3.5.4-.4 1.1-.9c.4-.3.7-.6 1.1-1l-.1.1v.1l-.1.1-.1.3-.3.6-.6 1.2c-.4.8-.9 1.6-1.4 2.3l-.2.3-.2.2c-.1.1-.2.1-.3.2l-.1.1-.2.1c-.5.1-1 .2-1.6.2-1.1.1-2.1.2-3.2.2-2.2.1-4.3.1-6.5.2-2.2 0-4.3.1-6.5.1-1 .6-2 1.1-3 1.8-.5.3-.9.7-1.4 1-.3.1-.6.4-.8.6zm23.1-9c-.6.3-1.1.7-1.6 1-.5.3-1.1.7-1.6 1.1-.5.4-1 .7-1.6 1.1s-1 .8-1.5 1.1l.4.2c.2-.7.3-1.3.4-2l.1-.4-.4.3c-.6.5-1.2 1-1.7 1.5.7-.4 1.3-.8 1.9-1.3l-.3-.1c-.2.7-.4 1.3-.6 1.9l-.2.6.6-.4c.5-.4 1-.7 1.5-1.1l1.5-1.2 1.5-1.2c.6-.3 1.1-.7 1.6-1.1zm-10.9 1.6c-.7.4-1.4.9-2.2 1.4-.7.5-1.4.9-2.1 1.4l.4.2c.1-.3.2-.6.4-1 .1-.3.2-.6.4-1l.2-.5-.5.2c-.5.2-1.1.5-1.6.7s-1 .5-1.5.8c-.5.3-1 .6-1.4.9-.4.3-.9.7-1.2 1.1.4-.3.9-.6 1.4-.9.5-.3 1-.6 1.5-.8.5-.2 1-.5 1.5-.7.5-.2 1-.5 1.6-.7l-.3-.2c-.1.3-.2.6-.4 1-.1.3-.2.6-.3 1l-.2.6.6-.4c.7-.5 1.3-1 2-1.5.4-.5 1.1-1 1.7-1.6z" fill="#1b141c" stroke-width="none" opacity="1"></path></g></g></g><g id="svga-group-eyebrows-right-move" transform="matrix(1,0,0,1,0,0)"><g id="svga-group-eyebrows-right-rotate" transform="matrix(1,1.7453292519943295e-9,-1.7453292519943295e-9,1,1.2705996255135688e-7,-2.123193070246998e-7)"><g id="svga-group-eyebrows-right"><path id="SvgjsPath10156" d="M108.2 71.1s2.3 4.4 3.6 5.2c1.4.7 15.7-1.3 15.7-1.3s4 1.7 5.3 3.2l-4-7.8-.3.4-9.2-.5 1.2.6-11.5-.2 1.4 2-2.2-1.6z" fill="#2a232b" stroke-width="none" opacity="1"></path><path id="SvgjsPath10157" d="M132.9 78.2c-.3-.7-.7-1.3-1-2l-1-2-2-3.9-.1-.3-.2.2-.3.3-4.5-.3-2.3-.1-2.3-.1-1-.1.9.5.4.2H108.7l.1.2 1.2 1.6c-.2-.2-.5-.3-.8-.5-.4-.2-.8-.5-1.1-.8v.2l.1.2.2.3.3.6c.2.4.4.8.7 1.2.2.4.5.8.7 1.1s.5.7.8 1.1l.2.3.3.2c.1.1.2.1.3.2.1 0 .1.1.2.1h.2c.5.1 1 .1 1.4.1.9 0 1.9-.1 2.8-.2 1.9-.1 3.7-.4 5.6-.6 1.8-.2 3.7-.5 5.5-.8.5.2.9.4 1.4.6.5.2.9.5 1.4.7.2.1.4.3.7.4.2.1.4.3.6.4.4.3.8.6 1.1 1l.4.5-.1-.5zm-1.2-1.1c-.4-.3-.9-.6-1.3-.8-.9-.5-1.8-1-2.8-1.4-1.8.2-3.7.5-5.6.7-1.9.2-3.7.4-5.6.6-.9.1-1.9.2-2.8.2-.5 0-.9 0-1.4-.1H111.9c-.1-.1-.2-.1-.3-.2l-.2-.2-.2-.2c-.6-.7-1.1-1.4-1.6-2.2-.2-.4-.5-.8-.7-1.1l-.3-.6-.2-.3-.1-.2v-.1l-.1-.1c.4.3.7.6 1.1.8l1.1.8.4.3-.3-.4-1.3-1.8 2.6.1 2.9.1c.9 0 1.9.1 2.9.1l2.9.1h.9l-.8-.4-.3-.2 1.3.1 2.3.1 4.6.2h.1l.1-.1.1-.2 1.9 3.6 1 1.9c.3.5.5 1 .8 1.5-.2-.2-.5-.4-.8-.6zm-20.4-5.6c.5.3 1 .6 1.6.8s1 .6 1.5.9l1.5.9 1.5.9-.3.2c-.2-.6-.4-1.3-.7-1.9l-.1-.4.3.3c.6.4 1.1.8 1.7 1.3-.6-.3-1.2-.7-1.8-1.1l.2-.2c.3.6.5 1.2.8 1.9l.2.6-.5-.3-1.5-.9c-.5-.3-1-.6-1.5-1s-1-.7-1.4-1c-.5-.3-1-.7-1.5-1zm9.6.3c.7.3 1.4.7 2.1 1.1s1.3.8 2 1.2l-.3.2c-.2-.3-.3-.6-.5-.9-.2-.3-.3-.6-.5-.9l-.2-.4.5.2c.5.2 1 .3 1.5.5s.9.4 1.4.6c.5.2.9.5 1.4.8.4.3.9.6 1.2.9-.4-.3-.9-.5-1.3-.8-.5-.2-.9-.4-1.4-.6-.5-.2-.9-.4-1.4-.6-.5-.2-1-.3-1.4-.5l.3-.3c.2.3.3.6.4.9.2.3.3.6.4.9l.3.6-.6-.4c-.7-.4-1.3-.8-1.9-1.3-.7-.3-1.4-.7-2-1.2z" fill="#1b141c" stroke-width="none" opacity="1"></path></g></g></g><g id="svga-group-beardwrap"><g id="svga-group-beard-single-move" transform="matrix(1,0,0,1,0,0)"><g id="svga-group-beard-single"></g></g></g><g id="svga-group-mustache-single-move" transform="matrix(1,0,0,1,0,0)"><g id="svga-group-mustache-single"></g></g><g id="svga-group-nose-single-move" transform="matrix(1,0,0,1,0,0)"><g id="svga-group-nose-single"><path id="SvgjsPath6229" d="M99.1 116.5c.67.12 4.53-3.31 4.53-3.31s2.06 1.59 3.62 1.43c1.56-.16 2.44-1.08 3-1.96.56-.88-.89-3.1-1.78-4.41-.9-1.31-3.54-5.22-4.09-7.02-1.07-3.45-3-4.76-4.92-4.64-1.92.12-4.04 1.52-4.6 3.44-.56 1.92-.72 4.28-1.8 5.76s-3.32 4-3.56 4.72c-.24.72-.11 2.8 1.24 3.56 1.73.97 4.3-.51 4.3-.51s3.18 2.78 4.06 2.94z" fill="#f0c7b1" stroke-width="none" opacity="1" stroke="none"></path><path id="SvgjsPath6230" d="M110.28 110.87c-.42-1.01-1.08-1.86-1.81-2.61.57.88 1.08 1.8 1.39 2.76.15.48.24.97.16 1.42-.05.23-.12.41-.26.6-.13.2-.29.39-.47.54-.69.66-1.7.91-2.68.78-.49-.06-.99-.2-1.46-.39-.45-.16-.86-.39-1.29-.62.38-.56.72-1.15 1.02-1.76-.97.91-1.89 1.83-2.87 2.64-.49.4-.98.8-1.51 1.09-.51.3-1.07.55-1.51.52-.12.01-.21-.02-.31-.04-.09-.05-.17-.06-.3-.16-.24-.15-.49-.36-.74-.55-.5-.39-.99-.82-1.49-1.23-.99-.84-1.99-1.69-3.07-2.48a21.8 21.8 0 0 0 1.68 2.24c-.5.22-1.01.41-1.53.52-.64.12-1.3.15-1.84-.1-1.09-.53-1.72-1.83-1.54-2.94.05-.28.13-.5.3-.74.17-.26.36-.53.56-.79.4-.52.82-1.02 1.26-1.52l.66-.74c.26-.28.46-.56.67-.84.41-.57.77-1.18 1.07-1.83.3-.65.48-1.4.59-2.06.12-.68.22-1.35.3-2.02.15-1.35.27-2.69.31-4.04.1-2.7.03-5.42-.51-8.07.05 2.69-.14 5.35-.4 8-.15 1.32-.29 2.65-.5 3.96-.1.66-.2 1.31-.32 1.96-.12.66-.27 1.22-.54 1.79a9.34 9.34 0 0 1-.94 1.65c-.18.26-.37.53-.57.74-.23.26-.45.51-.66.78-.43.53-.85 1.07-1.24 1.63-.2.28-.39.57-.57.88-.2.33-.34.76-.37 1.14-.13 1.57.85 3.05 2.25 3.55.73.23 1.47.11 2.12-.11.54-.19 1.03-.46 1.49-.77.24.28.47.57.71.84.44.5.91.96 1.41 1.42.25.23.51.44.82.65.13.1.36.22.57.3.22.06.44.12.66.11.88 0 1.55-.38 2.14-.76.58-.41 1.1-.86 1.55-1.37.44-.48.84-.99 1.21-1.53.75.66 1.64 1.25 2.68 1.45.54.12 1.11.12 1.66 0 .55-.14 1.07-.41 1.49-.8.21-.19.39-.42.54-.65.17-.23.29-.54.32-.84.06-.55-.08-1.1-.29-1.6z" fill="#c27b55" stroke-width="none" opacity="1" stroke="none"></path></g></g><g id="svga-group-hair-front"><path id="SvgjsPath8329" d="M98.1 20.4s-7.2-5.9-16.9-6.4l1.7 3s-14.6-.6-27.6 11.1l3.6 2.2s-9.5 8.5-11 21c-1.4 12.5-.5 24.1-.5 24.1s4.5-1.4 5.8-2.7l1.6-4.4 3.3 10.3 5.9 5.5s-2-8.5-1.7-14.6c.3-6.1.6-7.8.6-7.8l.6 4.5s1.2 4.1 5 5.5c0 0-1.7-12.1.5-17.7 0 0 0 8.8 2.7 11.6 0 0 2.3-1.6 3.1-3s1.7-5.2 2.5-7.7 3.1-9.4 5.5-11.7c2.3-2.3 5-5.2 5-5.2s6.7 2 9.4 5.6c0 0 4.1-2.5 7.2-3.6 3.1-1.1 7.4-2.3 7.4-2.3s5.2 7.4 6.6 12.1 2.7 11 2.7 12.5.2 3 .2 3 2.5-1.1 3.8-2.7c0 0 3.4-.5 5.2-2 1.7-1.6 3.9-4.4 3.4-13.6 0 0 1.2.6 2 5.8s1.7 14.2.6 19.1c0 0 1.4-.3 3.1-1.7 0 0-1.2 9.7 0 13.6 0 0 2.5-4.5 4.2-6.7s3.1-6.3 3.1-6.3l1.1-5.2 4.4-.2s-.2-7.8-1.1-11.1c-.9-3.3-2.8-13.8-7.1-19.9s-11.9-10.3-13-11-14.9-7.2-27.7-3.1c0 0 6.3-5 15.8-3s10.8 5.2 10.8 5.2l2.2.9 1.6-.5s-4.5-6.7-12.8-8.3-17.3.4-22.8 5.8z" fill="#2a232b" stroke-width="none" opacity="1"></path><path id="SvgjsPath8330" d="M87.3 38.1c-3.6 2.7-6.3 6.4-8.2 10.5-2.1 4.6-2.3 9.7-4.8 13.8 1-4.6 1.8-9.2 3.1-13.7 1.4-4.9 2.7-11.2 6.8-14.6.3-.2-.1-.6-.3-.5-4 1.9-5.1 7.6-6.2 11.4-1.8 5.9-3.4 12.1-3.8 18.2-.5.7-1.1 1.4-1.9 2.1v.1c-.5-1.9-1.1-3.8-1.4-5.7-.4-2.5-.5-4.9-.7-7.3.2-1.5.5-3 .9-4.5 0-.2-.2-.3-.3-.1-.5 1.4-.8 2.9-1.2 4.3V52.4c-.8 3.4-1.2 6.9-1.3 10.5 0 1 .7 7.9.4 8-1 .5-3.7-3.4-4.3-4.3-.2-.2-.5 0-.3.2 1.3 2.6 2.8 4.3 5.1 6.2.4.3.8 0 .8-.4-.8-5.2-.8-10.2-.3-15.3.3 3.2 1.2 6.5 2.6 9.2.1.2.4.1.4-.2 0-.1-.1-.2-.1-.3.1.1.2.1.3 0 3.7-2.5 4.6-6.5 5.6-10.7 1.7-6.8 4.9-11.8 9.8-16.7-.1-.3-.4-.7-.7-.5zm-4.6-21.3c.2.2.6 0 .4-.3-.4-.7-.8-1.3-1.3-1.9 6.1.8 11.1 3.1 16.3 6.3.3.2.6-.2.4-.5-4.9-4.4-11.5-6.4-17.9-7-.5-.1-.6.6-.4.9.8.9 1.5 1.7 2.5 2.5zM54.6 29.2c1.1.4 2.2.6 3.4.8.4.1.6-.5.2-.7-3.9-1.4.3-3.2 2.4-4.6 2-1.3 4.1-2.5 6.2-3.5 4.9-2.2 9.9-3.1 15.1-4 .3 0 .2-.5-.1-.5-10.2-.1-19.9 5.1-27.5 11.6-.2.3-.1.8.3.9zm8.2 36.6c.1-.2.3-.4.4-.6l.3.9c.1.4.7.2.6-.2-.3-1.7-.6-3.4-.5-5.2 0-.4-.7-.5-.8-.1-1.3 7.6-1.1 15.3 1.1 22.7-.7-.8-1.4-1.4-2.2-2.2-.9-.9-1.8-1.9-2.9-2.7-.1-.1-.3-.1-.4 0-1-3.5-2.2-6.9-3.3-10.4-.1-.3-.5-.3-.6 0-.4 1.4-.9 2.8-1.2 4.2-.1 0-.3 0-.4.1-1.3 1.2-4.3 3.9-5.3 1.9-.3-.7-.1-2.3-.2-3.1-.1-2.3-.2-4.6-.2-6.9 0-5.4.5-10.8 1.8-16C52.7 34 62.6 26.1 76.1 21.6c.2-.1.1-.4-.1-.3-12.4 2.5-22.5 11-26.7 22.9-3.6 10.1-3.2 21-2.7 31.5 0 .3.3.5.6.5 2.5-.5 4.3-1.4 6.2-3.1.2-.2.2-.4.1-.5.4-1.1.8-2.2 1.1-3.3 1 3.3 1.9 6.7 3 10 .1.3.5.3.7.1.7.9 1.6 1.7 2.4 2.5.9.9 1.8 1.9 2.8 2.7.1.1.3.1.4 0 .1.2.4.1.4-.2-1.2-5-2.1-10-2-15.2.3-1.1.4-2.3.5-3.4zm69.4-42.1c.6 0 1.2-.1 1.7-.1s.7-.6.4-.9c-9.4-10.7-25.2-12.2-36-2.6-.2.1.1.4.2.3 5.5-3.9 11.9-6.3 18.7-5.7 3.5.3 6.9 1.5 9.9 3.3 1.5.9 3.4 1.9 4.4 3.4.9 1.4 1.1 1.4-.1 1.5-.1-.1-.2-.1-.3-.2-7.6-7.3-19.4-8.2-28.2-2.4-.2.1 0 .4.2.3 8.6-4.7 17.3-4.3 25 .9-7.7-2.9-16.7-2.8-24.5-1-.2.1-.1.4.1.4 9.5-1.7 17.5-.3 26.4 2.4-.1.2.1.6.4.6h1.3c-.1.1-.1.2 0 .3 8.1 5.1 13.5 11.9 16.5 21 1.6 5 2.5 10.1 3.1 15.3.2 1.4.7 3.1.1 4.3.2-.5-2.4.8-3.1 1.2-.2.2 0 .7.3.6h3.7c.3.1.7-.2.7-.5-1.7-15.8-4.7-35.3-20.9-42.4zm16.1 42.2c1.1-6.7.4-14-2.7-19.9-.1-.2-.5-.1-.4.2 2.3 8.8 3.2 16.4 1.1 25.3-2.5 3.6-4.5 7.6-6.7 11.3-.5-4.2-.3-8.2.3-12.4 3.4-2.8 5.8-6.5 5.9-11.2 0-.4-.6-.5-.6-.1-.4 2.2-1.1 4.4-2.2 6.3-.2.3-1.5 1.9-2.8 3.4-.1-.2-.5-.3-.6 0-.1.3-.1.5-.2.8-1.1 1.1-2.1 1.9-2.4 1.6-.6-.6.1-3.1.1-3.9.2-2.3.2-4.5.1-6.8-.3-8.1-2.4-16.2-6.4-23.2-.2-.3-.5 0-.4.2.1.2.1.4.2.5v.1c1.3 4.3 2.6 8.4 2.6 12.9 0 2.8-.2 6.5-2.3 8.6-1.4 1.4-3.4 2-5.4 2.6 2.1-3.4 2.1-8 1.2-12.1 0-.2-.2-.2-.3-.2 0-6.3-4.8-13.8-10.4-16.6-.1 0-.2 0-.3.1-6.6 1.6-13.2 5.1-18.1 9.9-2.4-2.4-5.7-4.7-9.1-5.2-.5-.1-.6.5-.2.7 3.4 1.4 6.3 2.7 8.9 5.2.3.3.6 0 .7-.2 2.3-1.4 4.8-2.5 7.3-3.4 1.2-.4 2.4-.8 3.7-1.2.8-.3 2.3-.9 3.1-.9v.2c5 8.6 8.4 16.7 8.8 26.8 0 .4.4.6.8.4 1.5-.7 2.7-1.7 3.5-2.9 4.5-.9 7.8-2.5 8.7-7.5.4-2.4.5-5 .3-7.6 2.2 7.9 2.8 16 1.3 24.5-.1.5.4.8.8.6 1-.5 2-1.1 2.9-1.8-.9 4.4-.8 8.9-.1 13.3.1.4.7.4.9.1 2.6-4.4 5.5-8.7 7.6-13.4.1-.2 0-.4-.2-.5.3-1.4.7-3 1-4.6 0 0 .1 0 .2-.1l.1-.1c-.2.1-.3.1-.3.2zm-26.4-2c-1.1-1.4-1.1-7-1.6-8.8-1.5-6-4-12.1-8-16.9.2-.3.2-.8-.3-.9-.8-.1-.9 0-1.6.2-1.7.5-3.5 1.3-5.2 1.9-1.3.5-2.6 1.1-3.8 1.7 4.4-3 8.9-5.1 14.4-6.7.1 0 .2-.1.2-.2 2.4 2.1 4.6 4 6.3 6.8 1.8 2.9 2.5 6 3.3 9.3 0 .1.1.2.3.2 0 2.2.3 4.5 0 6.7-.1.6-.9 3.6-1.8 5.5h-.1c-.2 0-.2.2-.1.3-.6 1.1-1.4 1.8-2 .9zM86.2 33.6c-.2-.1-.3.2-.1.3 3.2 1.3 5.7 3.3 8.3 5.4.2.2.6-.1.4-.3-2.1-2.8-5.4-4.5-8.6-5.4zm-26.6 4.8c-5 6.1-7.4 15.2-7.2 23.1-.7.2-1.4.5-2 .9.5-9.8 3.6-18.4 9-26.5.1-.2-.2-.4-.3-.2-5.9 7.8-8.9 17.1-9.4 26.8 0 .3.3.4.5.3.1.1.2.2.3.1.7-.2 1.5-.5 2.1-.8.2.1.4 0 .4-.2v-.2c.7-8.7 3.1-15.2 6.9-23 .1-.3-.1-.5-.3-.3z" fill="#1b141c" stroke-width="none" opacity="1"></path></g><g id="svga-group-glasses-single-move" transform="matrix(1,0,0,1,0,0)"><g id="svga-group-glasses-single"></g></g></g></g></g><rect id="svga-credit-rect" width="200" height="15" x="0" y="185" fill="#ecf0f1" opacity="0.5" style="display: none;"></rect><text id="svga-credit-text" font-family="Avenir Next, Roboto, Helvetica, Arial, sans-serif" font-size="10px" text-anchor="start" font-weight="400" size="10px" anchor="start" weight="400" fill="#333333" x="33.402061462402344" y="182.71133995056152" style="display: none;"><tspan id="SvgjsTspan5365" dy="13" x="33.402061462402344">Created on AvatarMaker.com</tspan></text></g><defs id="SvgjsDefs5312"><linearGradient id="SvgjsLinearGradient6192" x1="99.7642" y1="100.53" x2="99.7642" y2="113.2523" gradientUnits="userSpaceOnUse" class="svga-on-canvas-nose-gradient-single-0-null"><stop id="SvgjsStop6193" stop-opacity="0" stop-color="#f0c7b1" offset="0" ></stop><stop id="SvgjsStop6194" stop-opacity="1" stop-color="#e8b9a0" offset="1" ></stop></linearGradient></defs></svg>